<svg width="67" height="25" viewBox="0 0 67 25" fill="none" xmlns="http://www.w3.org/2000/svg">
<path d="M53.8411 12.9598V13.4598H54.3411H55.1551H55.6551V12.9598V4.78223V4.28223H55.1551H51.4342C50.552 4.28223 49.7971 4.47086 49.2588 4.93514C48.7063 5.41164 48.469 6.10172 48.469 6.90839C48.469 7.62393 48.7002 8.24842 49.1809 8.74117C49.4993 9.06757 49.9099 9.3187 50.3954 9.50637L47.8665 12.6462L47.2111 13.4598H48.2559H49.3334H49.5754L49.7255 13.27L52.5162 9.74195L52.6241 9.6056V9.43176V8.72304V8.30672L52.2146 8.23131C51.4765 8.09535 50.9858 7.89188 50.6891 7.65839C50.4142 7.44207 50.2985 7.19723 50.2985 6.89282C50.2985 6.52917 50.4007 6.3413 50.5276 6.23223C50.6689 6.11074 50.9336 6.00653 51.4109 6.00653H53.8411V12.9598Z" fill="#040B13" stroke="#040B13"/>
<path d="M36.4727 11.7589H35.9727V12.2589V12.9598V13.4598H36.4727C37.4645 13.4598 38.2887 13.1487 38.8495 12.4569C39.3939 11.7851 39.6238 10.8337 39.6238 9.68877V5.98316H42.5773V12.9598V13.4598H43.0773H43.8913H44.3913V12.9598V4.78223V4.28223H43.8913H38.3099H37.8099V4.78223V9.68877C37.8099 10.501 37.662 11.0203 37.4438 11.3256C37.2477 11.5999 36.9538 11.7589 36.4727 11.7589Z" fill="#040B13" stroke="#040B13"/>
<circle cx="21.5" cy="11.5" r="9.5" stroke="#040B13" stroke-width="4"/>
<path d="M6.65116 24.9222C4.89922 22.1185 3.79587 20.4804 3.34109 20.0079C2.8863 19.5302 2.354 19.2914 1.74419 19.2914V18.7229C2.77778 18.7229 3.71576 17.8999 4.55814 16.254C5.40568 14.6081 6.31525 13.7852 7.28682 13.7852H8.11628V14.4861H7.50388C6.68734 14.4861 5.90698 15.1922 5.16279 16.6045C4.4186 18.0115 3.72351 18.8163 3.07752 19.0188C3.46512 19.0863 3.89147 19.3797 4.35659 19.8989C4.82171 20.4129 5.95866 22.0873 7.76744 24.9222H6.65116ZM0.813953 13.7852V24.9222H0V13.7852H0.813953Z" fill="#040B13"/>
<path d="M60.5273 22.6096C60.5273 20.9845 61.6023 20.1719 63.7522 20.1719C64.5118 20.1719 65.3232 20.2238 66.1863 20.3277V19.323C66.1863 18.0717 65.4033 17.4461 63.8374 17.4461C63.0002 17.4461 62.1423 17.5759 61.2638 17.8355V17.1345C62.1423 16.8749 63.0002 16.7451 63.8374 16.7451C65.9459 16.7451 67.0002 17.5914 67.0002 19.2841V24.9227H66.5041L66.318 24.1127C65.3 24.6527 64.3129 24.9227 63.3568 24.9227C61.4705 24.9227 60.5273 24.1517 60.5273 22.6096ZM63.7522 20.8728C62.1449 20.8728 61.3413 21.444 61.3413 22.5862C61.3413 23.6766 62.0131 24.2218 63.3568 24.2218C64.349 24.2218 65.2922 23.957 66.1863 23.4274V21.0286C65.3232 20.9248 64.5118 20.8728 63.7522 20.8728Z" fill="#040B13"/>
<path d="M56.4341 24.2218C57.5504 24.2218 58.1085 23.7025 58.1085 22.6641C58.1085 21.6257 57.4548 21.1065 56.1473 21.1065H54.9069V20.4756C56.9741 20.3978 58.0077 19.8033 58.0077 18.6922C58.0077 17.8614 57.5478 17.4461 56.6279 17.4461H53.31V24.2218H56.4341ZM52.4961 24.9227V16.7451H56.6821C58.1188 16.7451 58.8372 17.4019 58.8372 18.7155C58.8372 19.6138 58.3307 20.268 57.3178 20.6781C58.4237 20.9533 58.9767 21.6075 58.9767 22.6408C58.9767 24.162 58.1576 24.9227 56.5193 24.9227H52.4961Z" fill="#040B13"/>
<path d="M42.8066 20.8337C42.8066 18.0559 44.0986 16.667 46.6826 16.667C49.2666 16.667 50.5586 18.0559 50.5586 20.8337C50.5586 23.6114 49.2666 25.0003 46.6826 25.0003C44.109 25.0003 42.817 23.6114 42.8066 20.8337ZM43.6206 20.8025C43.6206 23.1338 44.6413 24.2994 46.6826 24.2994C48.724 24.2994 49.7446 23.1338 49.7446 20.8025C49.7446 18.5128 48.724 17.3679 46.6826 17.3679C44.6413 17.3679 43.6206 18.5128 43.6206 20.8025Z" fill="#040B13"/>
<path d="M42.023 16.7451V17.4461H39.1548V24.9227H38.3409V17.4461H35.4727V16.7451H42.023Z" fill="#040B13"/>
</svg>
